<svg xmlns="http://www.w3.org/2000/svg" width="50.769" height="50.78" viewBox="0 0 50.769 50.78">
  <g id="wallet_1_" data-name="wallet (1)" transform="translate(0.647 0.661)">
    <g id="Group_33" data-name="Group 33" transform="translate(0.003 0)">
      <g id="Group_32" data-name="Group 32">
        <path id="Path_9" data-name="Path 9" d="M47.223,24.942V17.989a4.488,4.488,0,0,0-4.139-4.461L36.627,2.251a4.45,4.45,0,0,0-6.1-1.645L8.388,13.492H4.5a4.5,4.5,0,0,0-4.5,4.5V44.972a4.5,4.5,0,0,0,4.5,4.5H42.726a4.5,4.5,0,0,0,4.5-4.5V38.019a3.367,3.367,0,0,0,2.249-3.166V28.108A3.367,3.367,0,0,0,47.223,24.942Zm-6.752-11.45h-9.8l7.35-4.279ZM36.9,7.262l-10.7,6.23H21.764l14.03-8.169Zm-5.25-4.713a2.174,2.174,0,0,1,1.67-.225,2.2,2.2,0,0,1,1.351,1.044l0,0L17.3,13.492H12.857Zm13.32,42.423a2.251,2.251,0,0,1-2.249,2.249H4.5a2.252,2.252,0,0,1-2.249-2.249V17.989A2.251,2.251,0,0,1,4.5,15.741H42.726a2.251,2.251,0,0,1,2.249,2.249v6.746H38.229a6.746,6.746,0,1,0,0,13.491h6.746v6.746Zm2.249-10.119A1.125,1.125,0,0,1,46.1,35.978h-7.87a4.5,4.5,0,0,1,0-8.994H46.1a1.125,1.125,0,0,1,1.124,1.124Z" transform="translate(-0.003 0)" fill="#fff" stroke="#fff" stroke-width="1.3"/>
        <path id="Path_10" data-name="Path 10" d="M343.586,277.341a2.249,2.249,0,1,0,2.249,2.249A2.252,2.252,0,0,0,343.586,277.341Z" transform="translate(-305.36 -248.109)" fill="#fff" stroke="#fff" stroke-width="1.3"/>
      </g>
    </g>
  </g>
</svg>
